# Wavefront Obj file
# 
# verts: 32 uv-s: 76
mtllib CreateCap_0_0.mtl

g Object001

v 4.354500 -9.944600 15.572300
v 4.354500 -6.596800 18.920099
v -4.806000 -6.596800 18.920099
v -4.806000 -9.944600 15.572300
v 4.354500 -9.944600 4.669500
v -4.806000 -9.944600 4.669500
v -4.806000 5.408299 18.358999
v 4.354500 5.408299 18.358999
v 4.354500 5.408299 18.322300
v -4.806000 5.408299 18.322300
v 4.354500 4.847199 18.920099
v -4.806000 4.847199 18.920099
v -4.806000 5.092700 18.885000
v -4.806000 5.268100 18.779800
v -4.806000 5.373300 18.604500
v -4.806000 5.373300 18.076900
v -4.806000 5.268100 17.901501
v -4.806000 5.092700 17.796301
v -4.806000 4.847199 17.761200
v -4.806000 -6.596800 17.761200
v 4.354500 -6.596800 17.761200
v 4.354500 4.847199 17.761200
v 4.354500 5.092700 17.796301
v 4.354500 5.268100 17.901501
v 4.354500 5.373300 18.076900
v 4.354500 5.373300 18.604500
v 4.354500 5.268100 18.779800
v 4.354500 5.092700 18.885000
v -4.806000 -8.886600 15.572300
v -4.806000 -8.886600 4.669500
v 4.354500 -8.886600 4.669500
v 4.354500 -8.886600 15.572300
# 32 positions

vt 0.267700 0.510400
vt 0.343800 0.510400
vt 0.343800 0.718600
vt 0.267700 0.718600
vt 0.020000 0.510400
vt 0.020000 0.718600
vt 0.531300 0.032000
vt 0.739500 0.032000
vt 0.739500 0.032800
vt 0.531300 0.032800
vt 0.397100 0.771900
vt 0.657100 0.771900
vt 0.657100 0.980000
vt 0.397100 0.980000
vt 0.219100 0.227000
vt 0.025000 0.053900
vt 0.021400 0.049600
vt 0.020000 0.045100
vt 0.020900 0.040600
vt 0.024000 0.035900
vt 0.024500 0.035300
vt 0.028800 0.031600
vt 0.033300 0.030300
vt 0.037800 0.031100
vt 0.042500 0.034200
vt 0.236600 0.207300
vt 0.281000 0.451500
vt 0.468400 0.271300
vt 0.473000 0.268000
vt 0.477500 0.266900
vt 0.482000 0.268200
vt 0.486500 0.271600
vt 0.487000 0.272200
vt 0.490300 0.276800
vt 0.491400 0.281300
vt 0.490200 0.285800
vt 0.486700 0.290300
vt 0.299300 0.470500
vt 0.491400 0.036000
vt 0.326500 0.220900
vt 0.308500 0.204900
vt 0.473400 0.020000
vt 0.531300 0.266900
vt 0.739500 0.266900
vt 0.739500 0.291000
vt 0.531300 0.291000
vt 0.191700 0.468400
vt 0.020000 0.289800
vt 0.037300 0.273100
vt 0.209000 0.451700
vt 0.020000 0.980000
vt 0.020000 0.771900
vt 0.267700 0.771900
vt 0.267700 0.980000
vt 0.317500 0.771900
vt 0.317500 0.980000
vt 0.662700 0.510400
vt 0.662700 0.718600
vt 0.402600 0.718600
vt 0.402600 0.510400
vt 0.739500 0.026400
vt 0.531300 0.026400
vt 0.531300 0.038400
vt 0.739500 0.038400
vt 0.739500 0.022400
vt 0.531300 0.022400
vt 0.739500 0.020000
vt 0.531300 0.020000
vt 0.662700 0.771900
vt 0.662700 0.980000
vt 0.531300 0.042300
vt 0.739500 0.042300
vt 0.531300 0.044700
vt 0.739500 0.044700
vt 0.397100 0.718600
vt 0.397100 0.510400
# 76 texture coordinates

vn 0.000000 -0.707107 0.707107
vn 0.000000 -1.000000 0.000000
vn 0.000000 0.997494 0.070746
vn 0.000000 0.997492 -0.070775
vn 0.000000 0.000000 1.000000
vn 0.000000 0.070944 0.997480
vn -1.000000 0.000000 0.000000
vn 1.000000 0.000000 0.000000
vn 0.000000 0.000000 -1.000000
vn 0.000000 1.000000 0.000000
vn 0.000000 0.691001 -0.722854
vn 0.000000 0.070948 -0.997480
vn 0.000000 0.942402 0.334482
vn 0.000000 0.942434 -0.334392
vn 0.000000 0.707019 0.707195
vn 0.000000 0.334551 0.942378
vn 0.000000 0.707107 -0.707107
vn 0.000000 0.334555 -0.942376
# 18 normals

usemtl wire_153228153
f 1/1/1 2/2/1 3/3/1 4/4/1
f 5/5/2 1/1/2 4/4/2 6/6/2
f 7/7/3 8/8/3 9/9/4 10/10/4
f 2/11/5 11/12/6 12/13/6 3/14/5
f 3/15/7 12/16/7 13/17/7 14/18/7
f 3/15/7 14/18/7 15/19/7 7/20/7
f 7/20/7 10/21/7 16/22/7 17/23/7
f 7/20/7 17/23/7 18/24/7 19/25/7
f 3/15/7 7/20/7 19/25/7 20/26/7
f 21/27/8 22/28/8 23/29/8 24/30/8
f 21/27/8 24/30/8 25/31/8 9/32/8
f 9/32/8 8/33/8 26/34/8 27/35/8
f 9/32/8 27/35/8 28/36/8 11/37/8
f 21/27/8 9/32/8 11/37/8 2/38/8
f 6/39/7 4/40/7 29/41/7 30/42/7
f 5/43/9 6/44/9 30/45/9 31/46/9
f 1/47/8 5/48/8 31/49/8 32/50/8
f 21/27/8 2/38/8 1/47/8 32/50/8
f 20/26/7 29/41/7 4/40/7 3/15/7
f 31/51/10 30/52/10 29/53/10 32/54/10
f 32/54/11 29/53/11 20/55/11 21/56/11
f 21/57/9 20/58/9 19/59/12 22/60/12
f 26/61/13 8/8/3 7/7/3 15/62/13
f 16/63/14 10/10/4 9/9/4 25/64/14
f 27/65/15 26/61/13 15/62/13 14/66/15
f 28/67/16 27/65/15 14/66/15 13/68/16
f 11/12/6 28/69/16 13/70/16 12/13/6
f 17/71/17 16/63/14 25/64/14 24/72/17
f 18/73/18 17/71/17 24/72/17 23/74/18
f 19/59/12 18/75/18 23/76/18 22/60/12

# 30 faces
